<svg xmlns="http://www.w3.org/2000/svg" viewBox="0 0 1200 900" width="1200" height="900">
  <defs>
    <radialGradient id="bg" cx="50%" cy="38%" r="78%">
      <stop offset="0%" stop-color="#F1E9E2"/>
      <stop offset="100%" stop-color="#DCCBBE"/>
    </radialGradient>
    <linearGradient id="wax" x1="0" y1="0" x2="1" y2="0">
      <stop offset="0%" stop-color="#DCCBBE"/>
      <stop offset="22%" stop-color="#FBF6F0"/>
      <stop offset="70%" stop-color="#FBF6F0"/>
      <stop offset="100%" stop-color="#DCCBBE"/>
    </linearGradient>
    <linearGradient id="sheen" x1="0" y1="0" x2="0" y2="1">
      <stop offset="0%" stop-color="#ffffff" stop-opacity="0.25"/>
      <stop offset="100%" stop-color="#000000" stop-opacity="0.06"/>
    </linearGradient>
    <filter id="grain">
      <feTurbulence type="fractalNoise" baseFrequency="0.9" numOctaves="3"/>
      <feColorMatrix type="saturate" values="0"/>
    </filter>
  </defs>
  <rect width="1200" height="900" fill="url(#bg)"/>
  
    <ellipse cx="600" cy="770" rx="255" ry="26" fill="#DCCBBE" opacity="0.55"/>
    <rect x="450" y="500" width="300" height="260" rx="26" fill="url(#wax)"/>
    <rect x="450" y="500" width="300" height="260" rx="26" fill="url(#sheen)"/>
    <ellipse cx="600" cy="500" rx="150" ry="33.333333333333336" fill="#FBF6F0"/>
    <ellipse cx="600" cy="500" rx="125" ry="25" fill="#DCCBBE" opacity="0.35"/>
    <rect x="598" y="474" width="4" height="26" rx="2" fill="#3A2F26"/>
    <g opacity="0.95">
      <ellipse cx="600" cy="454" rx="34" ry="52" fill="#B0704A" opacity="0.16"/>
      <path d="M600 422 C 614 440, 616 456, 600 470
               C 584 456, 586 440, 600 422 Z" fill="#B0704A"/>
    </g>
  <rect width="1200" height="900" filter="url(#grain)" opacity="0.05"/>
</svg>